<svg width="24" height="30" viewBox="0 0 24 30" fill="none" xmlns="http://www.w3.org/2000/svg">
<g id="icon/communication/location_on_24px" filter="url(#filter0_d)">
<path id="icon/communication/location_on_24px_2" fill-rule="evenodd" clip-rule="evenodd" d="M5 9.265C5 5.395 8.13 2.265 12 2.265C15.87 2.265 19 5.395 19 9.265C19 13.435 14.58 19.185 12.77 21.375C12.37 21.855 11.64 21.855 11.24 21.375C9.42 19.185 5 13.435 5 9.265ZM9.5 9.265C9.5 10.645 10.62 11.765 12 11.765C13.38 11.765 14.5 10.645 14.5 9.265C14.5 7.885 13.38 6.765 12 6.765C10.62 6.765 9.5 7.885 9.5 9.265Z" fill="black"/>
</g>
<defs>
<filter id="filter0_d" x="-4" y="0" width="32" height="32" filterUnits="userSpaceOnUse" color-interpolation-filters="sRGB">
<feFlood flood-opacity="0" result="BackgroundImageFix"/>
<feColorMatrix in="SourceAlpha" type="matrix" values="0 0 0 0 0 0 0 0 0 0 0 0 0 0 0 0 0 0 127 0" result="hardAlpha"/>
<feOffset dy="4"/>
<feGaussianBlur stdDeviation="2"/>
<feComposite in2="hardAlpha" operator="out"/>
<feColorMatrix type="matrix" values="0 0 0 0 0 0 0 0 0 0 0 0 0 0 0 0 0 0 0.25 0"/>
<feBlend mode="normal" in2="BackgroundImageFix" result="effect1_dropShadow"/>
<feBlend mode="normal" in="SourceGraphic" in2="effect1_dropShadow" result="shape"/>
</filter>
</defs>
</svg>
