<svg width="43" height="43" viewBox="0 0 43 43" fill="none" xmlns="http://www.w3.org/2000/svg">
<g clip-path="url(#clip0)">
<path d="M15.5156 7.99354C16.2114 7.99354 16.7754 7.4295 16.7754 6.73377V4.19702C16.7754 3.50129 16.2114 2.93726 15.5156 2.93726C14.8199 2.93726 14.2559 3.50129 14.2559 4.19702V6.73377C14.2559 7.4295 14.8199 7.99354 15.5156 7.99354Z" fill="black"/>
<path d="M4.08677 12.6049L1.88982 11.3365C1.28723 10.9884 0.516762 11.195 0.168983 11.7976C-0.17888 12.4001 0.0275532 13.1706 0.630057 13.5184L2.827 14.7868C3.42816 15.134 4.19923 14.9297 4.54784 14.3257C4.89571 13.7231 4.68927 12.9527 4.08677 12.6049Z" fill="black"/>
<path d="M2.827 26.5291L0.630057 27.7974C0.0275532 28.1453 -0.17888 28.9157 0.168983 29.5183C0.51861 30.1238 1.29017 30.3257 1.88982 29.9793L4.08677 28.7109C4.68927 28.363 4.89571 27.5927 4.54784 26.9901C4.19998 26.3877 3.42968 26.181 2.827 26.5291Z" fill="black"/>
<path d="M28.2043 14.7868L30.4012 13.5184C31.0037 13.1705 31.2101 12.4001 30.8623 11.7976C30.5144 11.195 29.7441 10.9884 29.1414 11.3365L26.9445 12.6049C26.342 12.9528 26.1356 13.7231 26.4834 14.3257C26.8331 14.9313 27.6046 15.1332 28.2043 14.7868Z" fill="black"/>
<path d="M33.502 22.4463C32.0599 18.8827 28.5618 16.5265 24.7134 16.5431C23.1365 13.0318 19.6075 10.5798 15.5155 10.5798C9.95846 10.5798 5.4375 15.1008 5.4375 20.6579C5.4375 24.2231 7.29927 27.3606 10.1007 29.1527C7.11366 33.8716 10.51 40.0583 16.0981 40.0583C35.9194 40.0376 34.8348 40.109 35.18 40.0018C39.583 39.5052 43.0001 35.7708 43.0001 31.24C43.0001 26.066 38.579 22.0487 33.502 22.4463ZM7.95703 20.658C7.95703 16.4902 11.3478 13.0994 15.5156 13.0994C18.3262 13.0994 20.7819 14.6422 22.0841 16.9246C18.1034 18.0911 15.3393 21.7253 15.295 25.895C14.0436 26.0323 12.8637 26.4998 11.8475 27.264C9.52914 25.9716 7.95703 23.4953 7.95703 20.658ZM34.7035 37.5172C34.2547 37.5536 22.8227 37.5325 16.0981 37.5388C11.9441 37.5388 9.91983 32.3898 13.0105 29.5674C13.9382 28.7202 15.1736 28.2695 16.5197 28.3919C17.3317 28.4652 17.9934 27.7626 17.8813 26.9625C17.2973 22.7943 20.525 19.0623 24.7419 19.0623C27.8614 19.0623 30.6109 21.1621 31.4281 24.1686C31.6028 24.811 32.2472 25.2063 32.8988 25.0719C36.8253 24.2598 40.4806 27.2614 40.4806 31.24C40.4806 34.4949 37.943 37.2522 34.7035 37.5172Z" fill="black"/>
</g>
<defs>
<clipPath id="clip0">
<rect width="43" height="43" fill="white"/>
</clipPath>
</defs>
</svg>
